<?xml version="1.0" encoding="UTF-8" standalone="no"?>
<!-- Created with Inkscape (http://www.inkscape.org/) -->

<svg
   xmlns:dc="http://purl.org/dc/elements/1.1/"
   xmlns:cc="http://creativecommons.org/ns#"
   xmlns:rdf="http://www.w3.org/1999/02/22-rdf-syntax-ns#"
   xmlns:svg="http://www.w3.org/2000/svg"
   xmlns="http://www.w3.org/2000/svg"
   xmlns:sodipodi="http://sodipodi.sourceforge.net/DTD/sodipodi-0.dtd"
   xmlns:inkscape="http://www.inkscape.org/namespaces/inkscape"
   width="177.17"
   height="177.16499"
   id="svg2"
   version="1.1"
   inkscape:version="0.48.4 r9939"
   sodipodi:docname="csiro-grey.svg"
   inkscape:export-filename="/home/simon/Documents/csiro-grey.png"
   inkscape:export-xdpi="90"
   inkscape:export-ydpi="90">
  <defs
     id="defs4">
    <clipPath
       id="clipPath3093"
       clipPathUnits="userSpaceOnUse">
      <path
         id="path3095"
         d="M 0,0 142,0 142,142 0,142 0,0 z"
         inkscape:connector-curvature="0" />
    </clipPath>
    <clipPath
       id="clipPath3083"
       clipPathUnits="userSpaceOnUse">
      <path
         id="path3085"
         d="M 0,0 142,0 142,142 0,142 0,0 z"
         inkscape:connector-curvature="0" />
    </clipPath>
    <clipPath
       id="clipPath3077"
       clipPathUnits="userSpaceOnUse">
      <path
         id="path3079"
         d="m 0.06,141.732 141.676,0 L 141.736,0 0.06,0 l 0,141.732 z"
         inkscape:connector-curvature="0" />
    </clipPath>
  </defs>
  <sodipodi:namedview
     id="base"
     pagecolor="#ffffff"
     bordercolor="#666666"
     borderopacity="1.0"
     inkscape:pageopacity="0.0"
     inkscape:pageshadow="2"
     inkscape:zoom="2"
     inkscape:cx="18.47965"
     inkscape:cy="42.868217"
     inkscape:document-units="px"
     inkscape:current-layer="layer1"
     showgrid="false"
     inkscape:window-width="1648"
     inkscape:window-height="1090"
     inkscape:window-x="339"
     inkscape:window-y="99"
     inkscape:window-maximized="0"
     showborder="true"
     borderlayer="false"
     fit-margin-top="0"
     fit-margin-left="0"
     fit-margin-right="0"
     fit-margin-bottom="0" />
  <metadata
     id="metadata7">
    <rdf:RDF>
      <cc:Work
         rdf:about="">
        <dc:format>image/svg+xml</dc:format>
        <dc:type
           rdf:resource="http://purl.org/dc/dcmitype/StillImage" />
        <dc:title></dc:title>
      </cc:Work>
    </rdf:RDF>
  </metadata>
  <g
     inkscape:label="Layer 1"
     inkscape:groupmode="layer"
     id="layer1"
     transform="translate(-268.52035,-318.0654)">
    <g
       id="g3071"
       transform="matrix(1.25,0,0,-1.25,268.52035,495.2304)" />
    <path
       style="fill:#cbcbcb;fill-opacity:1;fill-rule:nonzero;stroke:none"
       d="M 88.59375 0 C 39.66875 0 0 39.67 0 88.59375 C 0 137.52125 39.66875 177.15625 88.59375 177.15625 C 137.51875 177.15625 177.15625 137.52125 177.15625 88.59375 C 177.15625 39.67 137.51875 0 88.59375 0 z M 80.875 21.25 C 83.29625 21.25 85.25 23.2275 85.25 25.65625 L 85.25 63.28125 C 85.25 65.71125 83.29625 67.65625 80.875 67.65625 C 78.44875 67.65625 76.46875 65.71125 76.46875 63.28125 L 76.46875 25.65625 C 76.46875 23.2275 78.44875 21.25 80.875 21.25 z M 110.3125 21.25 C 112.74125 21.25 114.6875 23.2275 114.6875 25.65625 L 114.6875 80.15625 C 114.6875 82.58125 112.74125 84.53125 110.3125 84.53125 C 107.8875 84.53125 105.90625 82.58125 105.90625 80.15625 L 105.90625 25.65625 C 105.90625 23.2275 107.8875 21.25 110.3125 21.25 z M 66.15625 29.6875 C 68.58125 29.6875 70.53125 31.6675 70.53125 34.09375 L 70.53125 67.5 C 70.53125 69.9275 68.58125 71.875 66.15625 71.875 C 63.72875 71.875 61.75 69.9275 61.75 67.5 L 61.75 34.09375 C 61.75 31.6675 63.72875 29.6875 66.15625 29.6875 z M 95.59375 33.90625 C 98.01625 33.90625 99.96875 35.88875 99.96875 38.3125 L 99.96875 75.9375 C 99.96875 78.35875 98.01625 80.3125 95.59375 80.3125 C 93.1625 80.3125 91.1875 78.35875 91.1875 75.9375 L 91.1875 38.3125 C 91.1875 35.88875 93.1625 33.90625 95.59375 33.90625 z M 51.4375 42.34375 C 53.8625 42.34375 55.8125 44.32375 55.8125 46.75 L 55.8125 71.71875 C 55.8125 74.14 53.8625 76.09375 51.4375 76.09375 C 49.01 76.09375 47.03125 74.14 47.03125 71.71875 L 47.03125 46.75 C 47.03125 44.32375 49.01 42.34375 51.4375 42.34375 z M 125.03125 42.34375 C 127.4575 42.34375 129.40625 44.32375 129.40625 46.75 L 129.40625 71.71875 C 129.40625 74.14 127.4575 76.09375 125.03125 76.09375 C 122.6075 76.09375 120.625 74.14 120.625 71.71875 L 120.625 46.75 C 120.625 44.32375 122.6075 42.34375 125.03125 42.34375 z M 110.3125 88.75 C 112.935 88.75 115.0625 90.8825 115.0625 93.5 C 115.0625 96.12125 112.935 98.25 110.3125 98.25 C 107.6925 98.25 105.5625 96.12125 105.5625 93.5 C 105.5625 90.8825 107.6925 88.75 110.3125 88.75 z M 39.09375 107.03125 C 44.26875 107.03125 47.35875 108.78 49.90625 111.28125 L 46.0625 115.6875 C 43.9425 113.775 41.805 112.59375 39.0625 112.59375 C 34.445 112.59375 31.09375 116.42625 31.09375 121.125 L 31.09375 121.21875 C 31.09375 125.91 34.3675 129.8125 39.0625 129.8125 C 42.20125 129.8125 44.09625 128.58375 46.25 126.625 L 50.09375 130.5 C 47.27375 133.51125 44.1625 135.375 38.875 135.375 C 30.81375 135.375 24.8125 129.14875 24.8125 121.28125 L 24.8125 121.21875 C 24.8125 113.42125 30.675 107.03125 39.09375 107.03125 z M 137.84375 107.03125 C 146.30125 107.03125 152.34375 113.33375 152.34375 121.125 L 152.34375 121.21875 C 152.34375 129.00625 146.20375 135.375 137.75 135.375 C 129.29375 135.375 123.21875 129.0775 123.21875 121.28125 L 123.21875 121.21875 C 123.21875 113.42125 129.3875 107.03125 137.84375 107.03125 z M 64.71875 107.125 C 68.71375 107.125 72.13375 108.355 74.90625 110.59375 L 71.78125 115.15625 C 69.3575 113.47375 66.97125 112.4375 64.65625 112.4375 C 62.34875 112.4375 61.125 113.48 61.125 114.8125 L 61.125 114.90625 C 61.125 116.70125 62.29125 117.28875 67.03125 118.5 C 72.59 119.95625 75.71875 121.97 75.71875 126.75 L 75.71875 126.8125 C 75.71875 132.26125 71.56875 135.3125 65.65625 135.3125 C 61.5075 135.3125 57.32 133.84375 54.03125 130.90625 L 57.59375 126.65625 C 60.06 128.69375 62.64375 129.96875 65.78125 129.96875 C 68.2475 129.96875 69.75 129.01 69.75 127.40625 L 69.75 127.3125 C 69.75 125.77875 68.8 125.01625 64.21875 123.84375 C 58.7075 122.43375 55.125 120.90625 55.125 115.46875 L 55.125 115.375 C 55.125 110.405 59.12 107.125 64.71875 107.125 z M 82.40625 107.5 L 88.40625 107.5 L 88.40625 134.90625 L 82.40625 134.90625 L 82.40625 107.5 z M 96.125 107.5 L 108.65625 107.5 C 115.11125 107.5 119 110.92625 119 116.5625 L 119 116.625 C 119 121.045 116.61375 123.8325 113.125 125.125 L 119.8125 134.90625 L 112.78125 134.90625 L 106.90625 126.15625 L 102.15625 126.15625 L 102.15625 134.90625 L 96.125 134.90625 L 96.125 107.5 z M 137.75 112.59375 C 132.8925 112.59375 129.53125 116.42625 129.53125 121.125 L 129.53125 121.21875 C 129.53125 125.91 132.98375 129.8125 137.84375 129.8125 C 142.6975 129.8125 146.0625 125.98125 146.0625 121.28125 L 146.0625 121.21875 C 146.0625 116.51875 142.605 112.59375 137.75 112.59375 z M 102.15625 112.9375 L 102.15625 120.8125 L 108.28125 120.8125 C 111.22 120.8125 112.875 119.24875 112.875 116.9375 L 112.875 116.875 C 112.875 114.29 111.0925 112.9375 108.15625 112.9375 L 102.15625 112.9375 z "
       transform="translate(268.52035,318.0654)"
       id="path3087" />
  </g>
</svg>
